<svg width="35" height="34" fill="none" xmlns="http://www.w3.org/2000/svg"><path d="m25.506 16.073 2.965-2.965-7.083-7.084-2.965 2.966-7.819-7.802a3.784 3.784 0 0 0-5.345 0l-3.588 3.59a3.786 3.786 0 0 0 0 5.345l7.8 7.802L.5 26.916V34h7.082l8.99-8.992 7.8 7.802c1.794 1.794 4.212 1.133 5.345 0l3.589-3.59a3.786 3.786 0 0 0 0-5.345l-7.8-7.802Zm-13.334-.83L4.352 7.44l3.57-3.59 2.399 2.4-2.229 2.247 2.663 2.664 2.248-2.248 2.738 2.74-3.57 3.588Zm14.882 14.903-7.8-7.801 3.588-3.59 2.739 2.74-2.247 2.248 2.663 2.663 2.247-2.248 2.399 2.4-3.589 3.588ZM33.948 7.63a1.88 1.88 0 0 0 0-2.663l-4.42-4.42c-.887-.888-2.115-.548-2.663 0L23.41 4.003l7.082 7.083 3.457-3.457Z" fill="#009FAC"/></svg>