<svg width="35" height="34" fill="none" xmlns="http://www.w3.org/2000/svg"><path d="M14.338 0c1.202 0 1.887 1.197 1.887 2.4v7.37h-1.522a3.401 3.401 0 0 0-5.775-.888 3.403 3.403 0 0 0 1.974 5.502 3.398 3.398 0 0 0 3.802-2.063h1.521v18.536c0 1.014-.428 2.022-1.331 2.483a5.777 5.777 0 0 1-2.652.66c-2.567 0-4.476-1.3-5.705-2.837a8.797 8.797 0 0 1-1.734-3.635 5.86 5.86 0 0 1-2.158-1.173C1.438 25.315.5 23.649.5 21.193c0-1.285.092-2.404.323-3.344H7.98c1.153 0 2.108.85 2.27 1.957a3.4 3.4 0 0 0-.846 5.783 3.399 3.399 0 0 0 5.486-2.006 3.403 3.403 0 0 0-2.079-3.792 4.848 4.848 0 0 0-4.831-4.494H2.268c.255-.21.538-.383.842-.513a8.326 8.326 0 0 1-.303-1.917c-.056-1.25.13-2.551.501-3.71.368-1.14.949-2.25 1.765-3.017a3.607 3.607 0 0 1 1.863-.964c.338-1.429 1.2-2.61 2.3-3.465C10.65.61 12.5 0 14.336 0h.002Zm4.437 25.503h2.805a4.844 4.844 0 0 0 4.845-4.848v-3.053a3.4 3.4 0 0 0 .887-5.778 3.399 3.399 0 0 0-5.5 1.975 3.403 3.403 0 0 0 2.063 3.803v3.053a2.297 2.297 0 0 1-2.295 2.296h-2.805V2.4c0-1.203.685-2.4 1.887-2.4 1.84 0 3.689.609 5.102 1.711 1.1.856 1.962 2.038 2.3 3.465.714.119 1.35.483 1.863.964.816.767 1.397 1.876 1.765 3.017.37 1.159.557 2.46.501 3.71a8.295 8.295 0 0 1-.302 1.917l.112.05a3.54 3.54 0 0 1 1.52 1.378c.722 1.166.977 2.843.977 4.98 0 2.458-.938 4.127-2.145 5.163a5.86 5.86 0 0 1-2.16 1.173 8.8 8.8 0 0 1-1.732 3.635C27.234 32.701 25.325 34 22.756 34a5.776 5.776 0 0 1-2.652-.658c-.9-.463-1.329-1.471-1.329-2.485v-5.354ZM10.7 11.045a.85.85 0 1 1 1.701 0 .85.85 0 0 1-1.701 0Zm.85 11.056a.85.85 0 1 0 0 1.7.85.85 0 0 0 0-1.7Zm12.75-7.654a.85.85 0 1 0 1.702 0 .85.85 0 0 0-1.702 0Z" fill="#009FAC"/></svg>