<svg width="35" height="34" fill="none" xmlns="http://www.w3.org/2000/svg"><path d="M19.2 28.9v3.4a1.7 1.7 0 1 1-3.4 0v-3.4h-3.4v3.4a1.7 1.7 0 1 1-3.4 0v-3.4c0-.097.008-.19.024-.282a5.112 5.112 0 0 1-3.142-3.142 1.552 1.552 0 0 1-.282.024H2.2a1.7 1.7 0 1 1 0-3.4h3.4v-3.4H2.2a1.7 1.7 0 1 1 0-3.4h3.4v-3.4H2.2a1.7 1.7 0 1 1 0-3.4h3.4c.097 0 .19.008.282.024a5.107 5.107 0 0 1 3.142-3.142A1.713 1.713 0 0 1 9 5.1V1.7a1.7 1.7 0 0 1 3.4 0v3.4h3.4V1.7a1.7 1.7 0 1 1 3.4 0v3.4h3.4V1.7a1.7 1.7 0 1 1 3.4 0v3.4c0 .095-.009.19-.024.282a5.107 5.107 0 0 1 3.142 3.142c.093-.017.187-.025.282-.024h3.4a1.7 1.7 0 1 1 0 3.4h-3.4v3.4h3.4a1.7 1.7 0 1 1 0 3.4h-3.4v3.4h3.4a1.7 1.7 0 1 1 0 3.4h-3.4c-.097 0-.19-.009-.282-.024a5.112 5.112 0 0 1-3.142 3.142c.017.092.024.187.024.282v3.4a1.7 1.7 0 1 1-3.4 0v-3.4h-3.4Zm-5.1-17a1.7 1.7 0 0 0-1.7 1.7v6.8a1.7 1.7 0 0 0 1.7 1.7h6.8a1.7 1.7 0 0 0 1.7-1.7v-6.8a1.7 1.7 0 0 0-1.7-1.7h-6.8Z" fill="#009FAC"/></svg>