<svg width="39" height="36" fill="none" xmlns="http://www.w3.org/2000/svg"><path d="M19.5 0c.916 0 1.795.38 2.443 1.054A3.678 3.678 0 0 1 22.954 3.6c0 1.332-.69 2.502-1.727 3.114V9h1.727c3.207 0 6.283 1.328 8.55 3.69 2.268 2.363 3.541 5.568 3.541 8.91h1.728c.458 0 .897.19 1.221.527.324.338.506.796.506 1.273v5.4c0 .477-.182.935-.506 1.273a1.693 1.693 0 0 1-1.221.527h-1.728v1.8c0 .955-.364 1.87-1.011 2.546A3.385 3.385 0 0 1 31.59 36H7.409c-.916 0-1.795-.38-2.443-1.054A3.678 3.678 0 0 1 3.955 32.4v-1.8H2.227c-.458 0-.897-.19-1.221-.527A1.84 1.84 0 0 1 .5 28.8v-5.4c0-.477.182-.935.506-1.273a1.692 1.692 0 0 1 1.221-.527h1.728c0-3.342 1.273-6.547 3.54-8.91C9.764 10.329 12.84 9 16.046 9h1.728V6.714c-1.037-.612-1.727-1.782-1.727-3.114 0-.955.363-1.87 1.011-2.546A3.385 3.385 0 0 1 19.5 0Zm-7.773 19.8a4.232 4.232 0 0 0-3.053 1.318A4.598 4.598 0 0 0 7.409 24.3c0 1.194.455 2.338 1.265 3.182a4.232 4.232 0 0 0 3.053 1.318 4.232 4.232 0 0 0 3.054-1.318 4.598 4.598 0 0 0 1.264-3.182 4.598 4.598 0 0 0-1.264-3.182 4.232 4.232 0 0 0-3.054-1.318Zm15.546 0a4.232 4.232 0 0 0-3.054 1.318 4.598 4.598 0 0 0-1.265 3.182c0 1.194.456 2.338 1.265 3.182a4.232 4.232 0 0 0 3.054 1.318 4.231 4.231 0 0 0 3.053-1.318 4.598 4.598 0 0 0 1.265-3.182 4.598 4.598 0 0 0-1.265-3.182 4.231 4.231 0 0 0-3.053-1.318Z" fill="#009FAC"/></svg>